<svg xmlns="http://www.w3.org/2000/svg" version="1.1" width="2363px" height="2364px" style="shape-rendering:geometricPrecision; text-rendering:geometricPrecision; image-rendering:optimizeQuality; fill-rule:evenodd; clip-rule:evenodd" xmlns:xlink="http://www.w3.org/1999/xlink">
<g><path style="opacity:0.992" fill="#000000" d="M 1174.5,-0.5 C 1178.5,-0.5 1182.5,-0.5 1186.5,-0.5C 1477.74,4.38444 1733.74,100.551 1954.5,288C 2165.39,473.837 2295.89,706.003 2346,984.5C 2355.33,1041.96 2360.83,1099.62 2362.5,1157.5C 2362.5,1173.5 2362.5,1189.5 2362.5,1205.5C 2352.38,1511.21 2243.55,1775.21 2036,1997.5C 1825.81,2213.49 1569.64,2334.32 1267.5,2360C 1244.69,2361.5 1222.02,2362.67 1199.5,2363.5C 1186.83,2363.5 1174.17,2363.5 1161.5,2363.5C 849.146,2354.09 580.48,2242.25 355.5,2028C 153.597,1828 36.7642,1585.83 5,1301.5C 2.82732,1277.37 0.993984,1253.37 -0.5,1229.5C -0.5,1197.5 -0.5,1165.5 -0.5,1133.5C 16.1942,824.706 132.528,560.872 348.5,342C 549.145,146.373 789.812,34.0397 1070.5,5C 1105.27,2.02874 1139.93,0.195406 1174.5,-0.5 Z"/></g>
<g><path style="opacity:1" fill="#fdfdfd" d="M 1154.5,80.5 C 1451.93,77.8824 1710.27,175.716 1929.5,374C 2131.4,564.969 2247.23,799.469 2277,1077.5C 2297.91,1323.17 2244.58,1551.17 2117,1761.5C 1983.94,1971.49 1801.44,2121.65 1569.5,2212C 1380.37,2281.68 1186.37,2299.68 987.5,2266C 736.503,2218.39 526.003,2100.22 356,1911.5C 181.46,1710.92 89.4605,1476.92 80,1209.5C 76.2947,908.49 175.628,647.823 378,427.5C 571.678,225.756 808.512,111.256 1088.5,84C 1110.66,82.8817 1132.66,81.715 1154.5,80.5 Z"/></g>
<g><path style="opacity:1" fill="#040404" d="M 1150.5,144.5 C 1156.21,144.171 1161.87,144.505 1167.5,145.5C 1187,176.5 1206.5,207.5 1226,238.5C 1227.36,207.852 1228.19,177.185 1228.5,146.5C 1233.5,146.5 1238.5,146.5 1243.5,146.5C 1242.24,185.822 1241.57,225.155 1241.5,264.5C 1235.57,264.808 1229.74,264.475 1224,263.5C 1204.5,232.5 1185,201.5 1165.5,170.5C 1163.82,201.143 1162.82,231.809 1162.5,262.5C 1157.5,262.5 1152.5,262.5 1147.5,262.5C 1148.91,223.179 1149.91,183.846 1150.5,144.5 Z"/></g>
<g><path style="opacity:1" fill="#060606" d="M 1088.5,149.5 C 1091.17,149.5 1093.83,149.5 1096.5,149.5C 1097.08,153.81 1097.41,158.143 1097.5,162.5C 1075.2,165.746 1052.87,168.746 1030.5,171.5C 1030.17,173.333 1029.83,175.167 1029.5,177C 1030.64,187.201 1031.97,197.367 1033.5,207.5C 1055.11,204.46 1076.78,201.794 1098.5,199.5C 1098.87,202.319 1099.2,205.152 1099.5,208C 1099.37,209.981 1098.7,211.647 1097.5,213C 1076.9,215.992 1056.23,218.492 1035.5,220.5C 1036.75,234.191 1038.09,247.858 1039.5,261.5C 1063.75,257.927 1088.08,254.927 1112.5,252.5C 1113,257.152 1113.33,261.819 1113.5,266.5C 1084.51,269.899 1055.51,273.233 1026.5,276.5C 1021.83,237.779 1016.83,199.112 1011.5,160.5C 1037.21,156.246 1062.88,152.58 1088.5,149.5 Z"/></g>
<g><path style="opacity:1" fill="#050505" d="M 1330.5,155.5 C 1349.38,153.639 1366.71,157.806 1382.5,168C 1391.65,176.471 1396.32,186.971 1396.5,199.5C 1391.54,200.254 1386.54,200.587 1381.5,200.5C 1381.31,186.47 1374.64,176.97 1361.5,172C 1329.59,163.378 1309.75,175.212 1302,207.5C 1296.23,233.962 1305.73,252.129 1330.5,262C 1344.61,264.879 1358.27,263.546 1371.5,258C 1372,257.5 1372.5,257 1373,256.5C 1373.84,249.422 1375.01,242.422 1376.5,235.5C 1365.53,233.342 1354.53,231.342 1343.5,229.5C 1343.17,228.833 1342.83,228.167 1342.5,227.5C 1343.26,223.505 1343.93,219.505 1344.5,215.5C 1360.9,218.223 1377.23,221.223 1393.5,224.5C 1391.22,238.86 1388.72,253.193 1386,267.5C 1352.94,285.523 1322.94,281.523 1296,255.5C 1279.9,227.721 1281.23,200.721 1300,174.5C 1308.31,164.989 1318.48,158.656 1330.5,155.5 Z"/></g>
<g><path style="opacity:1" fill="#060606" d="M 951.5,171.5 C 953.766,171.141 955.599,171.808 957,173.5C 966.99,208.819 976.99,244.153 987,279.5C 987.667,281.167 987.667,282.833 987,284.5C 982.023,286.752 976.857,287.919 971.5,288C 943.667,264.167 915.833,240.333 888,216.5C 896.453,246.303 904.62,276.303 912.5,306.5C 908.435,307.183 904.435,308.183 900.5,309.5C 898.647,308.811 897.481,307.478 897,305.5C 886.637,268.833 876.471,232.167 866.5,195.5C 871.004,194.612 875.504,193.612 880,192.5C 881.627,192.625 883.127,193.125 884.5,194C 911.667,217.167 938.833,240.333 966,263.5C 958.575,234.046 950.409,204.713 941.5,175.5C 944.855,173.944 948.188,172.61 951.5,171.5 Z"/></g>
<g><path style="opacity:1" fill="#050505" d="M 1480.5,187.5 C 1486.13,188.991 1491.8,190.325 1497.5,191.5C 1502.17,233.842 1506.83,276.175 1511.5,318.5C 1505.83,317.167 1500.17,315.833 1494.5,314.5C 1493.28,301.521 1492.28,288.521 1491.5,275.5C 1475.53,271.678 1459.7,267.344 1444,262.5C 1436.14,272.369 1428.64,282.536 1421.5,293C 1416.04,292.238 1410.7,290.738 1405.5,288.5C 1430.75,254.982 1455.75,221.315 1480.5,187.5 Z"/></g>
<g><path style="opacity:1" fill="#f6f6f6" d="M 1484.5,202.5 C 1487.09,221.939 1488.76,241.606 1489.5,261.5C 1476.54,258.841 1463.87,255.341 1451.5,251C 1458.21,241.744 1465.04,232.577 1472,223.5C 1476.69,216.775 1480.86,209.775 1484.5,202.5 Z"/></g>
<g><path style="opacity:1" fill="#050505" d="M 813.5,214.5 C 815.888,215.219 817.388,216.885 818,219.5C 818.695,221.722 819.528,223.889 820.5,226C 799.921,236.204 779.088,246.037 758,255.5C 762.453,266.421 766.953,277.421 771.5,288.5C 791.36,279.989 811.193,271.322 831,262.5C 833.621,265.717 835.787,269.383 837.5,273.5C 837.291,274.086 836.957,274.586 836.5,275C 817.252,283.793 797.918,292.293 778.5,300.5C 782.976,312.752 788.143,324.752 794,336.5C 794.561,337.022 795.228,337.355 796,337.5C 817.542,327.93 839.042,318.264 860.5,308.5C 862.685,312.377 864.685,316.377 866.5,320.5C 840.864,332.317 815.197,344.15 789.5,356C 788.056,356.781 786.723,356.614 785.5,355.5C 769.629,320.259 753.629,285.092 737.5,250C 762.773,237.862 788.107,226.029 813.5,214.5 Z"/></g>
<g><path style="opacity:1" fill="#040404" d="M 1582.5,223.5 C 1588.02,224.326 1592.68,226.66 1596.5,230.5C 1590.17,244.495 1583.84,258.495 1577.5,272.5C 1595.37,281.935 1613.71,290.602 1632.5,298.5C 1639.89,284.052 1647.06,269.385 1654,254.5C 1658.47,256.932 1662.97,259.265 1667.5,261.5C 1651.5,297.495 1635,333.162 1618,368.5C 1614.56,366.862 1611.06,365.362 1607.5,364C 1606.43,363.261 1605.76,362.261 1605.5,361C 1613.13,344.594 1620.29,328.094 1627,311.5C 1608.79,303.312 1590.62,294.979 1572.5,286.5C 1570.52,288.457 1569.02,290.79 1568,293.5C 1561.86,307.584 1555.53,321.584 1549,335.5C 1548.44,336.022 1547.77,336.355 1547,336.5C 1542.97,334.399 1538.8,332.732 1534.5,331.5C 1550.48,295.541 1566.48,259.541 1582.5,223.5 Z"/></g>
<g><path style="opacity:1" fill="#050505" d="M 686.5,274.5 C 688.017,274.511 689.184,275.177 690,276.5C 710.375,308.751 730.875,340.918 751.5,373C 748.01,375.911 744.344,378.578 740.5,381C 739.668,381.688 739.002,381.521 738.5,380.5C 721.53,353.699 704.364,327.032 687,300.5C 694.278,332.807 701.778,365.141 709.5,397.5C 709.333,398.5 709.167,399.5 709,400.5C 705.758,403.205 702.258,405.539 698.5,407.5C 670.726,385.86 643.226,363.86 616,341.5C 633.137,369.902 650.97,398.068 669.5,426C 665.333,428.833 661.167,431.667 657,434.5C 635.702,401.402 614.536,368.235 593.5,335C 599.461,330.347 605.795,326.18 612.5,322.5C 640.144,344.31 667.644,366.31 695,388.5C 687.404,354.279 679.237,320.112 670.5,286C 675.694,281.91 681.027,278.076 686.5,274.5 Z"/></g>
<g><path style="opacity:1" fill="#040404" d="M 1753.5,457.5 C 1753.5,433.167 1753.5,408.833 1753.5,384.5C 1751.9,384.232 1750.57,384.566 1749.5,385.5C 1741.73,385.974 1734.07,387.141 1726.5,389C 1718.61,399.96 1710.61,410.794 1702.5,421.5C 1698.1,418.975 1694.1,415.975 1690.5,412.5C 1713.09,380.324 1735.92,348.324 1759,316.5C 1763.08,319.788 1767.24,322.955 1771.5,326C 1760.17,341.667 1748.83,357.333 1737.5,373C 1764.69,368.886 1791.85,364.386 1819,359.5C 1824.92,363.544 1830.75,367.711 1836.5,372C 1813.84,375.332 1791.17,378.499 1768.5,381.5C 1769.3,410.83 1769.47,440.164 1769,469.5C 1763.65,465.636 1758.48,461.636 1753.5,457.5 Z"/></g>
<g><path style="opacity:1" fill="#243771" d="M 1149.5,351.5 C 1376.1,344.625 1573.76,415.792 1742.5,565C 1895.21,706.925 1983.38,882.092 2007,1090.5C 2025.9,1316.76 1964.9,1518.09 1824,1694.5C 1686.06,1858.09 1510.56,1955.59 1297.5,1987C 1077.45,2013.16 878.115,1961.49 699.5,1832C 531.041,1703.68 425.541,1535.18 383,1326.5C 346.463,1125.23 378.796,935.894 480,758.5C 582.509,587.115 727.675,466.948 915.5,398C 991.428,371.514 1069.43,356.014 1149.5,351.5 Z"/></g>
<g><path style="opacity:1" fill="#b5b5b5" d="M 1749.5,385.5 C 1750.57,384.566 1751.9,384.232 1753.5,384.5C 1753.5,408.833 1753.5,433.167 1753.5,457.5C 1752.5,433.672 1752.17,409.672 1752.5,385.5C 1751.5,385.5 1750.5,385.5 1749.5,385.5 Z"/></g>
<g><path style="opacity:1" fill="#040404" d="M 509.5,401.5 C 536.966,429.801 564.3,458.301 591.5,487C 588.167,490.333 584.833,493.667 581.5,497C 580.833,497.667 580.167,497.667 579.5,497C 567.167,484 554.833,471 542.5,458C 541.833,457.333 541.167,457.333 540.5,458C 526.359,472.229 512.026,486.229 497.5,500C 510.35,513.349 523.017,526.849 535.5,540.5C 531.833,543.833 528.167,547.167 524.5,550.5C 497.163,522.496 470.163,494.163 443.5,465.5C 446.818,461.682 450.318,458.015 454,454.5C 465.012,466.345 476.179,478.011 487.5,489.5C 502.151,476.016 516.651,462.35 531,448.5C 531.667,447.833 531.667,447.167 531,446.5C 520.167,435 509.333,423.5 498.5,412C 502.062,408.268 505.729,404.768 509.5,401.5 Z"/></g>
<g><path style="opacity:1" fill="#050505" d="M 1869.5,402.5 C 1890.6,421.43 1911.27,440.93 1931.5,461C 1928.99,465.191 1925.66,468.191 1921.5,470C 1905.29,454.121 1888.79,438.621 1872,423.5C 1863.57,431.934 1855.07,440.434 1846.5,449C 1862,463.833 1877.5,478.667 1893,493.5C 1891.42,497.114 1888.92,500.281 1885.5,503C 1884.83,503.667 1884.17,503.667 1883.5,503C 1868.32,488.317 1852.98,473.817 1837.5,459.5C 1827.65,468.516 1818.32,478.016 1809.5,488C 1826.67,504.5 1843.83,521 1861,537.5C 1861.67,538.167 1861.67,538.833 1861,539.5C 1858,542.5 1855,545.5 1852,548.5C 1830.96,527.957 1809.79,507.624 1788.5,487.5C 1815.74,459.326 1842.74,430.992 1869.5,402.5 Z"/></g>
<g><path style="opacity:1" fill="#fdfcfd" d="M 1186.5,856.5 C 1185.96,856.56 1185.62,856.893 1185.5,857.5C 1188.43,858.484 1191.43,858.817 1194.5,858.5C 1220.84,861.251 1242.67,872.585 1260,892.5C 1285.27,866.911 1314.77,860.745 1348.5,874C 1368.69,883.2 1384.86,897.033 1397,915.5C 1425.07,889.724 1456.91,883.891 1492.5,898C 1526.98,915.43 1544.31,943.597 1544.5,982.5C 1544.04,1091.5 1543.88,1200.5 1544,1309.5C 1540.25,1388.87 1535.92,1468.2 1531,1547.5C 1522.16,1579.53 1506.82,1607.86 1485,1632.5C 1484.5,1719.83 1484.33,1807.17 1484.5,1894.5C 1333.83,1894.5 1183.17,1894.5 1032.5,1894.5C 1032.83,1831 1032.5,1767.66 1031.5,1704.5C 988.965,1678.49 959.465,1641.82 943,1594.5C 930.125,1557.13 921.459,1518.79 917,1479.5C 844.833,1418 772.667,1356.5 700.5,1295C 673.366,1269.6 662.532,1238.43 668,1201.5C 679.36,1148.15 709.86,1110.32 759.5,1088C 786.965,1078.71 813.298,1081.04 838.5,1095C 870.846,1122.58 904.012,1149.08 938,1174.5C 939.881,1089.84 939.881,1005.17 938,920.5C 937.832,912.147 937.332,903.813 936.5,895.5C 870.018,860.481 830.184,805.815 817,731.5C 807.657,651.173 833.157,584.34 893.5,531C 960.915,478.653 1034.92,466.986 1115.5,496C 1172.27,519.773 1212.77,559.939 1237,616.5C 1264.42,691.185 1256.09,761.518 1212,827.5C 1204.38,837.953 1195.88,847.62 1186.5,856.5 Z"/></g>
<g><path style="opacity:1" fill="#010101" d="M 1155.5,821.5 C 1154.83,776.833 1154.17,732.167 1153.5,687.5C 1148.1,646.609 1126.76,617.442 1089.5,600C 1057.81,587.375 1026.15,587.375 994.5,600C 962.655,615.521 943.155,640.688 936,675.5C 934.867,697.299 934.367,719.132 934.5,741C 934.891,774.17 935.057,807.336 935,840.5C 879.216,797.903 855.549,741.57 864,671.5C 877.011,607.598 913.511,563.098 973.5,538C 1036.26,517.571 1093.6,527.571 1145.5,568C 1200.06,618.384 1217.56,679.55 1198,751.5C 1189.16,778.195 1175,801.528 1155.5,821.5 Z"/></g>
<g><path style="opacity:1" fill="#050505" d="M 1992.5,533.5 C 1994.02,533.511 1995.18,534.177 1996,535.5C 1998,538.167 2000,540.833 2002,543.5C 2002.67,544.5 2002.67,545.5 2002,546.5C 1982.83,561.667 1963.67,576.833 1944.5,592C 1938.17,596.831 1931.51,601.165 1924.5,605C 1914.61,609.096 1905.27,608.096 1896.5,602C 1884.54,593.111 1879.37,581.278 1881,566.5C 1883.54,558.954 1888.04,552.787 1894.5,548C 1899.62,548.915 1903.62,551.749 1906.5,556.5C 1902.49,560.35 1898.99,564.683 1896,569.5C 1894.26,579.183 1897.76,586.35 1906.5,591C 1910.17,591.667 1913.83,591.667 1917.5,591C 1923.68,588.081 1929.34,584.414 1934.5,580C 1954.02,564.636 1973.35,549.136 1992.5,533.5 Z"/></g>
<g><path style="opacity:1" fill="#050505" d="M 383.5,535.5 C 424.717,546.124 465.717,557.791 506.5,570.5C 503.179,575.152 499.513,579.485 495.5,583.5C 483.552,580.145 471.718,576.479 460,572.5C 449.518,584.803 439.518,597.47 430,610.5C 429.333,611.5 429.333,612.5 430,613.5C 436.55,623.433 442.717,633.6 448.5,644C 445.731,648.44 442.565,652.606 439,656.5C 417.415,620.999 396.082,585.332 375,549.5C 374.333,548.5 374.333,547.5 375,546.5C 378.049,542.957 380.882,539.291 383.5,535.5 Z"/></g>
<g><path style="opacity:1" fill="#f9f9f9" d="M 388.5,550.5 C 406.912,555.957 425.579,561.791 444.5,568C 444.957,568.414 445.291,568.914 445.5,569.5C 437.85,579.813 429.85,589.813 421.5,599.5C 413,585.833 404.5,572.167 396,558.5C 394,555.334 391.5,552.668 388.5,550.5 Z"/></g>
<g><path style="opacity:1" fill="#050505" d="M 2032.5,584.5 C 2035.47,588.32 2038.3,592.32 2041,596.5C 2041.69,597.332 2041.52,597.998 2040.5,598.5C 2019.5,612 1998.5,625.5 1977.5,639C 1959.94,651.809 1957.77,666.976 1971,684.5C 1974.53,688.369 1978.37,691.869 1982.5,695C 1993.18,697.835 2003.18,696.169 2012.5,690C 2033.03,676.636 2053.7,663.469 2074.5,650.5C 2078.1,654.187 2081.1,658.354 2083.5,663C 2059.84,678.501 2035.84,693.501 2011.5,708C 1988.84,716.922 1971.01,711.089 1958,690.5C 1941.3,666.115 1944.47,644.949 1967.5,627C 1989.57,613.307 2011.24,599.14 2032.5,584.5 Z"/></g>
<g><path style="opacity:1" fill="#e21f27" d="M 1030.5,637.5 C 1050.21,635.428 1068.21,639.928 1084.5,651C 1097.34,661.502 1104.84,675.002 1107,691.5C 1107.33,856.167 1107.67,1020.83 1108,1185.5C 1112.05,1206.23 1124.22,1213.73 1144.5,1208C 1153.17,1203.5 1158.01,1196.33 1159,1186.5C 1160.09,1101.83 1160.43,1017.16 1160,932.5C 1164.51,909.662 1178.01,901.162 1200.5,907C 1219.56,914.394 1232.06,927.894 1238,947.5C 1239.32,1026.46 1239.99,1105.46 1240,1184.5C 1240.54,1197.77 1246.71,1207.27 1258.5,1213C 1274.29,1213.23 1283.46,1205.39 1286,1189.5C 1286.33,1107.83 1286.67,1026.17 1287,944.5C 1294.29,913.947 1311.79,906.447 1339.5,922C 1355.51,934.184 1364.68,950.351 1367,970.5C 1367.33,1045.5 1367.67,1120.5 1368,1195.5C 1369.12,1205.55 1372.96,1214.38 1379.5,1222C 1390.95,1229.3 1400.79,1227.47 1409,1216.5C 1412.32,1210.87 1414.65,1204.87 1416,1198.5C 1417.11,1180.36 1417.61,1162.2 1417.5,1144C 1416.15,1086.82 1416.32,1029.66 1418,972.5C 1426.03,943.403 1444.53,932.903 1473.5,941C 1485.96,947.07 1493.8,956.903 1497,970.5C 1496.77,1081.83 1496.77,1193.16 1497,1304.5C 1492.93,1382.5 1488.93,1460.5 1485,1538.5C 1468.63,1586.2 1438.46,1622.37 1394.5,1647C 1317.2,1688.81 1234.87,1704.47 1147.5,1694C 1107.09,1688.87 1070.42,1674.54 1037.5,1651C 1013.63,1631.79 996.797,1607.62 987,1578.5C 973.806,1538.49 965.139,1497.49 961,1455.5C 883.833,1389.67 806.667,1323.83 729.5,1258C 714.728,1241.74 710.228,1222.91 716,1201.5C 725.001,1171.51 743.167,1149.01 770.5,1134C 787.849,1126.59 804.182,1128.26 819.5,1139C 830.167,1148.33 840.833,1157.67 851.5,1167C 880.987,1189.91 910.653,1212.58 940.5,1235C 953.333,1245.83 966.167,1256.67 979,1267.5C 985.15,1198.81 987.65,1129.98 986.5,1061C 985.784,964.821 984.284,868.655 982,772.5C 981.333,743.833 981.333,715.167 982,686.5C 987.653,659.68 1003.82,643.347 1030.5,637.5 Z"/></g>
<g><path style="opacity:1" fill="#050505" d="M 296.5,663.5 C 326.941,680.557 357.275,697.89 387.5,715.5C 396.92,699.663 406.086,683.663 415,667.5C 415.689,666.643 416.522,665.977 417.5,665.5C 421.457,667.473 425.124,669.806 428.5,672.5C 416.404,693.7 404.071,714.7 391.5,735.5C 357.173,716.339 323.173,696.672 289.5,676.5C 292.113,672.272 294.446,667.939 296.5,663.5 Z"/></g>
<g><path style="opacity:1" fill="#cfcfcf" d="M 1153.5,687.5 C 1154.17,732.167 1154.83,776.833 1155.5,821.5C 1155.44,822.043 1155.11,822.376 1154.5,822.5C 1153.5,777.505 1153.17,732.505 1153.5,687.5 Z"/></g>
<g><path style="opacity:1" fill="#040404" d="M 2107.5,712.5 C 2109.41,712.574 2110.58,713.574 2111,715.5C 2119.61,734.383 2127.94,753.383 2136,772.5C 2140.98,793.707 2133.15,807.54 2112.5,814C 2100.89,816.241 2091.06,813.074 2083,804.5C 2080.67,801.5 2078.33,798.5 2076,795.5C 2075.39,802.906 2073.39,809.906 2070,816.5C 2061.7,829.635 2053.2,842.635 2044.5,855.5C 2041.56,849.963 2038.9,844.296 2036.5,838.5C 2046.6,823.228 2056.1,807.561 2065,791.5C 2066.42,786.572 2066.75,781.572 2066,776.5C 2063.27,768.627 2059.61,761.294 2055,754.5C 2039.67,761.167 2024.33,767.833 2009,774.5C 2006.05,770.613 2003.55,766.28 2001.5,761.5C 2036.93,745.147 2072.26,728.813 2107.5,712.5 Z"/></g>
<g><path style="opacity:1" fill="#050505" d="M 287.5,732.5 C 318.52,731.918 341.687,744.918 357,771.5C 364.459,797.503 358.292,819.669 338.5,838C 324.632,847.631 309.298,850.964 292.5,848C 274.344,844.015 259.511,834.848 248,820.5C 234.325,796.651 235.659,773.651 252,751.5C 261.596,740.788 273.429,734.455 287.5,732.5 Z"/></g>
<g><path style="opacity:1" fill="#fafafa" d="M 2101.5,732.5 C 2102.68,732.281 2103.68,732.614 2104.5,733.5C 2112.1,748.528 2118.43,764.028 2123.5,780C 2121.14,794.86 2112.48,800.86 2097.5,798C 2094.73,796.533 2092.23,794.7 2090,792.5C 2082.19,778.37 2075.02,763.87 2068.5,749C 2079.37,743.212 2090.37,737.712 2101.5,732.5 Z"/></g>
<g><path style="opacity:1" fill="#fcfcfc" d="M 281.5,748.5 C 305.773,746.636 325.606,754.97 341,773.5C 351.321,795.015 347.154,813.182 328.5,828C 317.384,833.693 305.717,835.027 293.5,832C 277.845,827.44 265.345,818.607 256,805.5C 247.232,778.603 255.732,759.603 281.5,748.5 Z"/></g>
<g><path style="opacity:1" fill="#060606" d="M 2162.5,850.5 C 2164.14,850.286 2165.64,850.62 2167,851.5C 2168.48,856.102 2169.65,860.769 2170.5,865.5C 2148.06,871.371 2125.72,877.538 2103.5,884C 2073.58,892.601 2066.75,910.435 2083,937.5C 2086.01,941.52 2089.84,944.353 2094.5,946C 2101.53,946.587 2108.53,946.254 2115.5,945C 2139.7,937.584 2163.86,931.084 2188,925.5C 2189.02,929.701 2190.18,933.868 2191.5,938C 2191.17,938.5 2190.83,939 2190.5,939.5C 2170.8,945.234 2151.13,951.067 2131.5,957C 2088.73,971.239 2065.06,955.906 2060.5,911C 2059.83,895.676 2066.16,884.343 2079.5,877C 2083.75,874.806 2088.08,872.806 2092.5,871C 2116.02,864.434 2139.35,857.601 2162.5,850.5 Z"/></g>
<g><path style="opacity:1" fill="#919bb8" d="M 1186.5,856.5 C 1189.17,857.167 1191.83,857.833 1194.5,858.5C 1191.43,858.817 1188.43,858.484 1185.5,857.5C 1185.62,856.893 1185.96,856.56 1186.5,856.5 Z"/></g>
<g><path style="opacity:1" fill="#050505" d="M 210.5,857.5 C 221.821,877.473 233.155,897.473 244.5,917.5C 271.332,906.947 298.332,897.114 325.5,888C 323.298,894.272 321.298,900.605 319.5,907C 296.353,914.379 273.686,922.712 251.5,932C 255.365,939.564 259.365,947.064 263.5,954.5C 276.383,958.44 289.216,962.44 302,966.5C 301.187,971.102 300.354,975.769 299.5,980.5C 297.473,980.662 295.473,980.495 293.5,980C 257.653,969.395 221.653,959.228 185.5,949.5C 185.697,945.378 186.53,941.378 188,937.5C 188.347,935.82 189.347,934.82 191,934.5C 209.084,939.978 227.251,944.811 245.5,949C 232.207,925.581 219.04,902.081 206,878.5C 206.697,871.374 208.197,864.374 210.5,857.5 Z"/></g>
<g><path style="opacity:1" fill="#050505" d="M 2084.5,997.5 C 2125.47,1007.33 2166.47,1016.99 2207.5,1026.5C 2208.5,1032.51 2208.5,1038.51 2207.5,1044.5C 2170.92,1065.04 2134.42,1085.71 2098,1106.5C 2096.99,1101.02 2096.15,1095.52 2095.5,1090C 2095.83,1089.5 2096.17,1089 2096.5,1088.5C 2106.99,1083.09 2117.33,1077.42 2127.5,1071.5C 2127.83,1069.5 2128.17,1067.5 2128.5,1065.5C 2127,1052.5 2125.5,1039.5 2124,1026.5C 2123.88,1024.27 2123.05,1022.44 2121.5,1021C 2109.55,1018.18 2097.55,1015.68 2085.5,1013.5C 2085.17,1008.17 2084.83,1002.83 2084.5,997.5 Z"/></g>
<g><path style="opacity:1" fill="#060606" d="M 181.5,1067.5 C 180.539,1069.26 180.205,1071.26 180.5,1073.5C 181.5,1073.5 182.5,1073.5 183.5,1073.5C 194.536,1074.59 205.536,1075.92 216.5,1077.5C 219.74,1055.91 222.406,1034.25 224.5,1012.5C 229.132,1013.38 233.798,1014.05 238.5,1014.5C 235.542,1036.12 232.875,1057.79 230.5,1079.5C 243.522,1081.09 256.522,1082.75 269.5,1084.5C 273.649,1060.64 276.983,1036.64 279.5,1012.5C 284.167,1012.83 288.833,1013.17 293.5,1013.5C 289.57,1042.8 285.903,1072.13 282.5,1101.5C 243.478,1096.91 204.478,1092.08 165.5,1087C 164.978,1086.44 164.645,1085.77 164.5,1085C 168.528,1057.56 172.195,1030.06 175.5,1002.5C 180.196,1002.67 184.863,1003.17 189.5,1004C 186.672,1025.11 184.005,1046.27 181.5,1067.5 Z"/></g>
<g><path style="opacity:1" fill="#f9f9f9" d="M 2136.5,1024.5 C 2155.61,1029.61 2174.94,1033.78 2194.5,1037C 2177.04,1045.56 2159.71,1054.4 2142.5,1063.5C 2141.75,1062.62 2141.25,1061.62 2141,1060.5C 2139.5,1048.49 2138,1036.49 2136.5,1024.5 Z"/></g>
<g><path style="opacity:1" fill="#8e8e8e" d="M 181.5,1067.5 C 181.259,1069.89 181.925,1071.89 183.5,1073.5C 182.5,1073.5 181.5,1073.5 180.5,1073.5C 180.205,1071.26 180.539,1069.26 181.5,1067.5 Z"/></g>
<g><path style="opacity:1" fill="#050505" d="M 2100.5,1131.5 C 2139.85,1131.98 2179.18,1132.98 2218.5,1134.5C 2218.83,1139.87 2218.49,1145.21 2217.5,1150.5C 2186.81,1169.84 2156.14,1189.18 2125.5,1208.5C 2124.71,1208.78 2124.04,1209.28 2123.5,1210C 2128.49,1210.5 2133.49,1210.67 2138.5,1210.5C 2164.51,1210.84 2190.51,1211.51 2216.5,1212.5C 2216.5,1214.83 2216.5,1217.17 2216.5,1219.5C 2215.53,1221.61 2215.2,1223.94 2215.5,1226.5C 2209.17,1226.5 2202.83,1226.5 2196.5,1226.5C 2163.49,1226.18 2130.49,1225.51 2097.5,1224.5C 2097.19,1218.91 2097.53,1213.41 2098.5,1208C 2129.83,1188.33 2161.17,1168.67 2192.5,1149C 2164.85,1147.72 2137.18,1146.89 2109.5,1146.5C 2106.71,1145.52 2103.71,1145.19 2100.5,1145.5C 2100.5,1140.83 2100.5,1136.17 2100.5,1131.5 Z"/></g>
<g><path style="opacity:1" fill="#050505" d="M 239.5,1136.5 C 259.434,1135.21 272.934,1143.88 280,1162.5C 283.196,1175.47 283.196,1188.47 280,1201.5C 274.24,1219.14 262.074,1228.81 243.5,1230.5C 243.387,1225.48 243.053,1220.48 242.5,1215.5C 257.027,1213.47 265.527,1205.14 268,1190.5C 269.822,1179.56 268.156,1169.23 263,1159.5C 257.006,1152.13 249.506,1149.96 240.5,1153C 236.245,1156.27 233.078,1160.43 231,1165.5C 227.921,1178.89 224.588,1192.23 221,1205.5C 211.677,1226.83 196.51,1232.33 175.5,1222C 166.825,1214.48 161.991,1204.98 161,1193.5C 157.904,1177.04 161.737,1162.54 172.5,1150C 178.878,1144.64 186.211,1141.81 194.5,1141.5C 195.329,1146.45 195.663,1151.45 195.5,1156.5C 180.637,1159.17 173.637,1168.17 174.5,1183.5C 174.018,1191.26 175.518,1198.59 179,1205.5C 186.416,1213.95 194.416,1214.62 203,1207.5C 204,1205.5 205,1203.5 206,1201.5C 209.532,1189.31 212.532,1176.98 215,1164.5C 218.113,1150.56 226.28,1141.23 239.5,1136.5 Z"/></g>
<g><path style="opacity:1" fill="#4c4c4c" d="M 2100.5,1131.5 C 2100.5,1136.17 2100.5,1140.83 2100.5,1145.5C 2103.71,1145.19 2106.71,1145.52 2109.5,1146.5C 2106.17,1146.5 2102.83,1146.5 2099.5,1146.5C 2099.18,1141.31 2099.51,1136.31 2100.5,1131.5 Z"/></g>
<g><path style="opacity:1" fill="#ababab" d="M 2125.5,1208.5 C 2129.83,1209.17 2134.17,1209.83 2138.5,1210.5C 2133.49,1210.67 2128.49,1210.5 2123.5,1210C 2124.04,1209.28 2124.71,1208.78 2125.5,1208.5 Z"/></g>
<g><path style="opacity:1" fill="#535353" d="M 2216.5,1219.5 C 2216.5,1222.17 2216.5,1224.83 2216.5,1227.5C 2209.65,1227.82 2202.98,1227.49 2196.5,1226.5C 2202.83,1226.5 2209.17,1226.5 2215.5,1226.5C 2215.2,1223.94 2215.53,1221.61 2216.5,1219.5 Z"/></g>
<g><path style="opacity:1" fill="#020202" d="M 258.5,1333.5 C 268.016,1352.53 277.016,1371.87 285.5,1391.5C 306.885,1389.49 328.218,1387.33 349.5,1385C 334.291,1399.71 318.958,1414.21 303.5,1428.5C 312.227,1447.62 321.227,1466.62 330.5,1485.5C 330.167,1485.83 329.833,1486.17 329.5,1486.5C 311.29,1476.23 292.956,1466.23 274.5,1456.5C 258.895,1470.1 243.561,1484.1 228.5,1498.5C 228.167,1497.83 227.833,1497.17 227.5,1496.5C 231.423,1477.22 235.09,1457.89 238.5,1438.5C 238.167,1437.5 237.833,1436.5 237.5,1435.5C 219.167,1425.33 200.833,1415.17 182.5,1405C 203.82,1402.21 225.153,1399.55 246.5,1397C 250.889,1375.94 254.889,1354.77 258.5,1333.5 Z"/></g>
<g><path style="opacity:1" fill="#030303" d="M 2120.5,1333.5 C 2124.95,1354.62 2128.95,1375.96 2132.5,1397.5C 2154.21,1399.59 2175.87,1402.09 2197.5,1405C 2178.62,1415.36 2159.78,1425.86 2141,1436.5C 2145.18,1457.4 2148.85,1478.4 2152,1499.5C 2136.92,1484.42 2121.25,1470.08 2105,1456.5C 2086.42,1466.08 2068.09,1476.08 2050,1486.5C 2049.88,1484.83 2050.21,1483.16 2051,1481.5C 2059.58,1464.18 2067.74,1446.68 2075.5,1429C 2060.84,1413.67 2045.5,1399.01 2029.5,1385C 2046.92,1386.01 2064.25,1388.01 2081.5,1391C 2085.5,1391.67 2089.5,1391.67 2093.5,1391C 2102.64,1371.88 2111.64,1352.72 2120.5,1333.5 Z"/></g>
<g><path style="opacity:1" fill="#e21f27" d="M 1437.5,1847.5 C 1318.17,1847.5 1198.83,1847.5 1079.5,1847.5C 1079.17,1807 1079.5,1766.66 1080.5,1726.5C 1140.78,1745.18 1202.11,1749.35 1264.5,1739C 1326.74,1730.28 1384.24,1709.11 1437,1675.5C 1437.5,1732.83 1437.67,1790.17 1437.5,1847.5 Z"/></g>
<g><path style="opacity:1" fill="#050505" d="M 433.5,1687.5 C 445.107,1700.66 456.274,1714.33 467,1728.5C 483.557,1751.49 479.724,1770.33 455.5,1785C 443.35,1789.46 432.016,1788.12 421.5,1781C 409.84,1769.15 399.007,1756.65 389,1743.5C 377.742,1752.21 366.576,1761.05 355.5,1770C 353.945,1771.29 352.279,1771.96 350.5,1772C 347.5,1768.33 344.5,1764.67 341.5,1761C 372.643,1737.02 403.309,1712.52 433.5,1687.5 Z"/></g>
<g><path style="opacity:1" fill="#fbfbfb" d="M 432.5,1708.5 C 443.23,1719.75 452.73,1732.08 461,1745.5C 462.844,1759.33 457.01,1768.17 443.5,1772C 436.584,1772.88 430.584,1770.88 425.5,1766C 416.976,1755.64 408.643,1745.14 400.5,1734.5C 411.5,1726.16 422.167,1717.49 432.5,1708.5 Z"/></g>
<g><path style="opacity:1" fill="#050505" d="M 1914.5,1724.5 C 1955.77,1735.73 1996.77,1747.73 2037.5,1760.5C 2034.15,1765.34 2030.32,1769.67 2026,1773.5C 2014.33,1769.83 2002.67,1766.17 1991,1762.5C 1980.77,1774.62 1970.77,1786.95 1961,1799.5C 1960.33,1800.83 1960.33,1802.17 1961,1803.5C 1967.42,1813.33 1973.58,1823.33 1979.5,1833.5C 1976.82,1838.19 1973.66,1842.52 1970,1846.5C 1948.29,1810.25 1926.46,1774.08 1904.5,1738C 1908.46,1733.89 1911.79,1729.39 1914.5,1724.5 Z"/></g>
<g><path style="opacity:1" fill="#ee787b" d="M 1080.5,1726.5 C 1079.5,1766.66 1079.17,1807 1079.5,1847.5C 1198.83,1847.5 1318.17,1847.5 1437.5,1847.5C 1318,1848.5 1198.33,1848.83 1078.5,1848.5C 1078.17,1807.49 1078.5,1766.49 1079.5,1725.5C 1080.11,1725.62 1080.44,1725.96 1080.5,1726.5 Z"/></g>
<g><path style="opacity:1" fill="#f9f9f9" d="M 1920.5,1739.5 C 1938.86,1746.42 1957.53,1752.42 1976.5,1757.5C 1976.65,1758.55 1976.48,1759.55 1976,1760.5C 1968.33,1770.34 1960.49,1780 1952.5,1789.5C 1942.31,1772.44 1931.64,1755.77 1920.5,1739.5 Z"/></g>
<g><path style="opacity:1" fill="#050505" d="M 526.5,1801.5 C 530.94,1804.76 535.273,1808.26 539.5,1812C 549.363,1822.2 559.529,1832.03 570,1841.5C 587.032,1859.49 586.532,1876.99 568.5,1894C 554.249,1902.1 540.749,1900.93 528,1890.5C 529.5,1899.01 529.833,1907.68 529,1916.5C 526.41,1930.27 523.41,1943.93 520,1957.5C 514.821,1953.65 510.321,1949.15 506.5,1944C 511.578,1924.45 514.412,1904.62 515,1884.5C 514.275,1882.05 513.275,1879.72 512,1877.5C 505.969,1871.13 499.636,1865.13 493,1859.5C 480.822,1871.38 468.989,1883.54 457.5,1896C 456.833,1896.67 456.167,1896.67 455.5,1896C 452.167,1892.67 448.833,1889.33 445.5,1886C 472.339,1857.66 499.339,1829.49 526.5,1801.5 Z"/></g>
<g><path style="opacity:1" fill="#050505" d="M 1843.5,1808.5 C 1847.4,1810.89 1850.9,1813.89 1854,1817.5C 1877.72,1843.1 1901.55,1868.6 1925.5,1894C 1922.5,1897 1919.5,1900 1916.5,1903C 1915.5,1903.67 1914.5,1903.67 1913.5,1903C 1891.67,1879.83 1869.83,1856.67 1848,1833.5C 1861.5,1864.84 1875.33,1896.17 1889.5,1927.5C 1886.68,1930.82 1883.68,1933.98 1880.5,1937C 1849.34,1921.59 1818.34,1905.92 1787.5,1890C 1809.83,1913.67 1832.17,1937.33 1854.5,1961C 1851,1964.5 1847.5,1968 1844,1971.5C 1816.65,1942.98 1789.48,1914.32 1762.5,1885.5C 1768.17,1880.17 1773.83,1874.83 1779.5,1869.5C 1810.85,1886.34 1842.19,1902.84 1873.5,1919C 1858.43,1887.03 1843.76,1854.86 1829.5,1822.5C 1833.88,1817.45 1838.55,1812.79 1843.5,1808.5 Z"/></g>
<g><path style="opacity:1" fill="#fbfbfb" d="M 528.5,1821.5 C 540.378,1830.87 551.544,1841.2 562,1852.5C 569.934,1865.29 567.434,1875.46 554.5,1883C 549.016,1885.15 543.683,1884.81 538.5,1882C 525.601,1872.11 513.601,1861.11 502.5,1849C 511.737,1840.27 520.404,1831.1 528.5,1821.5 Z"/></g>
<g><path style="opacity:1" fill="#7d88ab" d="M 1031.5,1704.5 C 1032.5,1767.66 1032.83,1831 1032.5,1894.5C 1183.17,1894.5 1333.83,1894.5 1484.5,1894.5C 1333.67,1895.5 1182.67,1895.83 1031.5,1895.5C 1031.5,1831.83 1031.5,1768.17 1031.5,1704.5 Z"/></g>
<g><path style="opacity:1" fill="#050505" d="M 642.5,1903.5 C 666.322,1918.96 689.655,1935.3 712.5,1952.5C 710.078,1956.34 707.411,1960.01 704.5,1963.5C 685.833,1950.17 667.167,1936.83 648.5,1923.5C 641.193,1932.1 634.359,1941.1 628,1950.5C 627.333,1951.5 627.333,1952.5 628,1953.5C 645.255,1965.88 662.422,1978.38 679.5,1991C 677.413,1994.51 675.08,1997.84 672.5,2001C 671.833,2001.67 671.167,2001.67 670.5,2001C 653.404,1988.7 636.237,1976.54 619,1964.5C 610.932,1974.96 603.099,1985.63 595.5,1996.5C 614.503,2010.66 633.67,2024.66 653,2038.5C 651.755,2042.97 649.421,2046.97 646,2050.5C 622.167,2033.33 598.333,2016.17 574.5,1999C 596.998,1967.01 619.664,1935.18 642.5,1903.5 Z"/></g>
<g><path style="opacity:1" fill="#050505" d="M 1708.5,1921.5 C 1732.11,1952.68 1755.28,1984.34 1778,2016.5C 1778.62,2017.45 1778.45,2018.28 1777.5,2019C 1774.17,2021.33 1770.83,2023.67 1767.5,2026C 1766.83,2026.67 1766.17,2026.67 1765.5,2026C 1742.83,1994.33 1720.17,1962.67 1697.5,1931C 1701.36,1927.97 1705.03,1924.8 1708.5,1921.5 Z"/></g>
<g><path style="opacity:1" fill="#050505" d="M 1627.5,1974.5 C 1646.43,1973.59 1658.6,1982.26 1664,2000.5C 1665.29,2016.21 1659.13,2028.04 1645.5,2036C 1652.79,2036.43 1659.79,2038.1 1666.5,2041C 1680.37,2048.43 1693.7,2056.59 1706.5,2065.5C 1700.98,2069.43 1694.98,2071.93 1688.5,2073C 1674.16,2064.16 1659.49,2055.83 1644.5,2048C 1636.99,2044.45 1629.66,2044.79 1622.5,2049C 1616.48,2051.68 1610.81,2054.84 1605.5,2058.5C 1613.17,2073.83 1620.83,2089.17 1628.5,2104.5C 1624.33,2107.09 1619.99,2109.42 1615.5,2111.5C 1597.2,2077.07 1579.54,2042.24 1562.5,2007C 1562.61,2005.72 1563.28,2004.89 1564.5,2004.5C 1585.23,1993.63 1606.23,1983.63 1627.5,1974.5 Z"/></g>
<g><path style="opacity:1" fill="#050505" d="M 767.5,1988.5 C 789.38,1987.69 807.213,1995.69 821,2012.5C 827.452,2022.81 828.119,2033.48 823,2044.5C 818.81,2042.94 814.644,2041.27 810.5,2039.5C 813.44,2026.82 809.44,2016.98 798.5,2010C 789.886,2004.57 780.553,2002.24 770.5,2003C 759.524,2007.27 756.358,2014.77 761,2025.5C 774.521,2036.93 787.854,2048.6 801,2060.5C 810.875,2073.79 810.875,2087.12 801,2100.5C 788.466,2112.26 773.966,2115.42 757.5,2110C 745.925,2105.63 735.758,2099.13 727,2090.5C 718,2078.32 716.167,2065.15 721.5,2051C 726.309,2051.77 730.976,2053.27 735.5,2055.5C 732.052,2064.81 733.219,2073.47 739,2081.5C 750.326,2094.76 764.492,2099.92 781.5,2097C 793.409,2090.18 795.576,2081.01 788,2069.5C 779.124,2061.62 769.957,2054.12 760.5,2047C 752.216,2041.06 746.716,2033.23 744,2023.5C 742.911,2005.77 750.744,1994.1 767.5,1988.5 Z"/></g>
<g><path style="opacity:1" fill="#fafafa" d="M 1625.5,1989.5 C 1636.71,1988.21 1644.21,1992.88 1648,2003.5C 1649.4,2014.86 1644.9,2023.03 1634.5,2028C 1622.83,2033.83 1611.17,2039.67 1599.5,2045.5C 1593.37,2034.08 1587.37,2022.58 1581.5,2011C 1595.87,2002.98 1610.54,1995.81 1625.5,1989.5 Z"/></g>
<g><path style="opacity:1" fill="#060606" d="M 883.5,2034.5 C 913.5,2042.5 943.5,2050.5 973.5,2058.5C 972.778,2063.33 971.444,2068 969.5,2072.5C 957.839,2069.17 946.172,2065.84 934.5,2062.5C 933.558,2062.61 932.725,2062.94 932,2063.5C 922.673,2096.47 913.507,2129.47 904.5,2162.5C 900.142,2161.49 895.809,2160.33 891.5,2159C 890.572,2158.61 889.905,2157.95 889.5,2157C 898.641,2123.91 907.974,2090.91 917.5,2058C 905.494,2054.5 893.494,2051 881.5,2047.5C 881.167,2046.67 880.833,2045.83 880.5,2045C 881.692,2041.53 882.692,2038.03 883.5,2034.5 Z"/></g>
<g><path style="opacity:1" fill="#050505" d="M 1481.5,2036.5 C 1502.26,2034.46 1515.42,2043.46 1521,2063.5C 1524.18,2078.98 1519.35,2091.15 1506.5,2100C 1491.97,2106.62 1477.13,2112.46 1462,2117.5C 1466.2,2132.43 1471.03,2147.26 1476.5,2162C 1472.02,2165.22 1467.02,2167.39 1461.5,2168.5C 1449.34,2131.51 1436.67,2094.68 1423.5,2058C 1424.44,2056.52 1425.78,2055.52 1427.5,2055C 1445.58,2048.7 1463.58,2042.53 1481.5,2036.5 Z"/></g>
<g><path style="opacity:1" fill="#fbfbfb" d="M 1482.5,2050.5 C 1501.5,2052.47 1508.66,2062.8 1504,2081.5C 1500.66,2087.17 1495.82,2091.01 1489.5,2093C 1478.8,2096.73 1468.13,2100.57 1457.5,2104.5C 1456.91,2104.29 1456.41,2103.96 1456,2103.5C 1451.6,2090.8 1447.1,2078.13 1442.5,2065.5C 1455.68,2059.9 1469.02,2054.9 1482.5,2050.5 Z"/></g>
<g><path style="opacity:1" fill="#050505" d="M 1042.5,2073.5 C 1048.55,2073.73 1054.55,2074.4 1060.5,2075.5C 1071.65,2116.44 1082.65,2157.44 1093.5,2198.5C 1087.46,2198.16 1081.46,2197.49 1075.5,2196.5C 1072.99,2184.14 1070.33,2171.8 1067.5,2159.5C 1051.81,2157.75 1036.15,2155.75 1020.5,2153.5C 1019.17,2153.83 1017.83,2154.17 1016.5,2154.5C 1011.17,2165.17 1005.83,2175.83 1000.5,2186.5C 994.802,2187.19 989.135,2186.69 983.5,2185C 1003.32,2147.86 1022.99,2110.69 1042.5,2073.5 Z"/></g>
<g><path style="opacity:1" fill="#060606" d="M 1314.5,2075.5 C 1317.83,2075.5 1321.17,2075.5 1324.5,2075.5C 1329.06,2114.52 1333.73,2153.52 1338.5,2192.5C 1333.2,2193.19 1327.86,2193.53 1322.5,2193.5C 1318.11,2154.46 1313.44,2115.46 1308.5,2076.5C 1310.74,2076.79 1312.74,2076.46 1314.5,2075.5 Z"/></g>
<g><path style="opacity:1" fill="#050505" d="M 1188.5,2082.5 C 1201.96,2081.26 1214.62,2083.76 1226.5,2090C 1235.24,2096.64 1239.9,2105.47 1240.5,2116.5C 1235.55,2117.33 1230.55,2117.66 1225.5,2117.5C 1224.52,2105.73 1218.19,2098.89 1206.5,2097C 1198.77,2096.14 1191.1,2096.48 1183.5,2098C 1175.93,2100.9 1171.26,2106.23 1169.5,2114C 1170.65,2122.82 1175.65,2128.16 1184.5,2130C 1198.31,2132.72 1211.98,2136.05 1225.5,2140C 1241.59,2147.01 1248.09,2159.18 1245,2176.5C 1239.18,2193.19 1227.34,2202.35 1209.5,2204C 1192.98,2207.12 1177.98,2203.78 1164.5,2194C 1156.51,2186.19 1152.51,2176.69 1152.5,2165.5C 1157.21,2165.65 1161.88,2165.31 1166.5,2164.5C 1168.35,2178.19 1176.02,2186.69 1189.5,2190C 1201.45,2191.95 1212.79,2190.28 1223.5,2185C 1234.5,2174.77 1234.17,2165.1 1222.5,2156C 1206.68,2151.03 1190.68,2146.7 1174.5,2143C 1159.88,2136.6 1153.38,2125.43 1155,2109.5C 1157.97,2097.86 1165.14,2090.03 1176.5,2086C 1180.54,2084.51 1184.54,2083.34 1188.5,2082.5 Z"/></g>
<g><path style="opacity:1" fill="#f7f7f7" d="M 1049.5,2086.5 C 1054.15,2106.01 1058.48,2125.68 1062.5,2145.5C 1049.37,2144.59 1036.37,2142.92 1023.5,2140.5C 1033.25,2122.99 1041.92,2104.99 1049.5,2086.5 Z"/></g>
</svg>
